<mxfile host="app.diagrams.net" modified="2022-03-15T13:14:04.366Z" agent="5.0 (X11; Linux x86_64) AppleWebKit/537.36 (KHTML, like Gecko) Chrome/99.0.4844.51 Safari/537.36" etag="RsAtVXdnoXTOpUlIfvtI" version="17.1.2" type="github">
  <diagram id="TZHW-k2NmtmCAE0H2bB1" name="Page-1">
    <mxGraphModel dx="868" dy="424" grid="1" gridSize="10" guides="1" tooltips="1" connect="1" arrows="1" fold="1" page="1" pageScale="1" pageWidth="827" pageHeight="1169" math="0" shadow="0">
      <root>
        <mxCell id="0" />
        <mxCell id="1" parent="0" />
        <mxCell id="p2AEGx6l2dzTs35SkICE-173" style="edgeStyle=orthogonalEdgeStyle;rounded=0;orthogonalLoop=1;jettySize=auto;html=1;exitX=0;exitY=0.5;exitDx=0;exitDy=0;entryX=0.5;entryY=0;entryDx=0;entryDy=0;fillColor=#a20025;strokeColor=#6F0000;" edge="1" parent="1" source="p2AEGx6l2dzTs35SkICE-170" target="p2AEGx6l2dzTs35SkICE-128">
          <mxGeometry relative="1" as="geometry">
            <Array as="points">
              <mxPoint x="221" y="66" />
              <mxPoint x="127" y="66" />
            </Array>
          </mxGeometry>
        </mxCell>
        <mxCell id="p2AEGx6l2dzTs35SkICE-170" value="" style="rounded=1;whiteSpace=wrap;html=1;rotation=90;" vertex="1" parent="1">
          <mxGeometry x="161.25" y="107" width="120" height="60" as="geometry" />
        </mxCell>
        <mxCell id="p2AEGx6l2dzTs35SkICE-2" style="edgeStyle=orthogonalEdgeStyle;rounded=0;orthogonalLoop=1;jettySize=auto;html=1;exitX=0.25;exitY=1;exitDx=0;exitDy=0;entryX=0.99;entryY=0.594;entryDx=0;entryDy=0;entryPerimeter=0;" edge="1" parent="1" source="p2AEGx6l2dzTs35SkICE-5" target="p2AEGx6l2dzTs35SkICE-6">
          <mxGeometry relative="1" as="geometry" />
        </mxCell>
        <mxCell id="p2AEGx6l2dzTs35SkICE-3" style="edgeStyle=orthogonalEdgeStyle;rounded=0;orthogonalLoop=1;jettySize=auto;html=1;exitX=0.5;exitY=1;exitDx=0;exitDy=0;entryX=0.5;entryY=1;entryDx=0;entryDy=0;" edge="1" parent="1" source="p2AEGx6l2dzTs35SkICE-5" target="p2AEGx6l2dzTs35SkICE-7">
          <mxGeometry relative="1" as="geometry" />
        </mxCell>
        <mxCell id="p2AEGx6l2dzTs35SkICE-4" style="edgeStyle=orthogonalEdgeStyle;rounded=0;orthogonalLoop=1;jettySize=auto;html=1;exitX=0.75;exitY=1;exitDx=0;exitDy=0;entryX=0.5;entryY=1;entryDx=0;entryDy=0;" edge="1" parent="1" source="p2AEGx6l2dzTs35SkICE-5" target="p2AEGx6l2dzTs35SkICE-8">
          <mxGeometry relative="1" as="geometry">
            <Array as="points">
              <mxPoint x="460" y="666" />
              <mxPoint x="460" y="796" />
              <mxPoint x="99" y="796" />
            </Array>
          </mxGeometry>
        </mxCell>
        <mxCell id="p2AEGx6l2dzTs35SkICE-5" value="" style="rounded=1;whiteSpace=wrap;html=1;" vertex="1" parent="1">
          <mxGeometry x="381" y="569" width="100" height="97" as="geometry" />
        </mxCell>
        <mxCell id="p2AEGx6l2dzTs35SkICE-6" value="" style="rounded=1;whiteSpace=wrap;html=1;" vertex="1" parent="1">
          <mxGeometry x="260" y="660" width="100" height="101" as="geometry" />
        </mxCell>
        <mxCell id="p2AEGx6l2dzTs35SkICE-7" value="" style="rounded=1;whiteSpace=wrap;html=1;" vertex="1" parent="1">
          <mxGeometry x="153" y="660" width="100" height="101" as="geometry" />
        </mxCell>
        <mxCell id="p2AEGx6l2dzTs35SkICE-8" value="" style="rounded=1;whiteSpace=wrap;html=1;" vertex="1" parent="1">
          <mxGeometry x="49" y="660" width="100" height="101" as="geometry" />
        </mxCell>
        <mxCell id="p2AEGx6l2dzTs35SkICE-9" value="" style="shape=ellipse;html=1;dashed=0;whitespace=wrap;aspect=fixed;perimeter=ellipsePerimeter;fillColor=#dae8fc;strokeColor=#6c8ebf;" vertex="1" parent="1">
          <mxGeometry x="59" y="724" width="20" height="20" as="geometry" />
        </mxCell>
        <mxCell id="p2AEGx6l2dzTs35SkICE-10" value="" style="shape=ellipse;html=1;dashed=0;whitespace=wrap;aspect=fixed;perimeter=ellipsePerimeter;fillColor=#dae8fc;strokeColor=#6c8ebf;" vertex="1" parent="1">
          <mxGeometry x="89" y="724" width="20" height="20" as="geometry" />
        </mxCell>
        <mxCell id="p2AEGx6l2dzTs35SkICE-11" value="" style="shape=ellipse;html=1;dashed=0;whitespace=wrap;aspect=fixed;perimeter=ellipsePerimeter;fillColor=#dae8fc;strokeColor=#6c8ebf;" vertex="1" parent="1">
          <mxGeometry x="119" y="724" width="20" height="20" as="geometry" />
        </mxCell>
        <mxCell id="p2AEGx6l2dzTs35SkICE-12" value="" style="endArrow=classic;html=1;rounded=0;entryX=0;entryY=1;entryDx=0;entryDy=0;exitX=0;exitY=0;exitDx=0;exitDy=0;fillColor=#dae8fc;strokeColor=#6c8ebf;" edge="1" parent="1" source="p2AEGx6l2dzTs35SkICE-9" target="p2AEGx6l2dzTs35SkICE-13">
          <mxGeometry width="50" height="50" relative="1" as="geometry">
            <mxPoint x="69" y="721" as="sourcePoint" />
            <mxPoint x="89" y="701" as="targetPoint" />
          </mxGeometry>
        </mxCell>
        <mxCell id="p2AEGx6l2dzTs35SkICE-13" value="" style="shape=ellipse;html=1;dashed=0;whitespace=wrap;aspect=fixed;perimeter=ellipsePerimeter;fillColor=#dae8fc;strokeColor=#6c8ebf;" vertex="1" parent="1">
          <mxGeometry x="73" y="693" width="20" height="20" as="geometry" />
        </mxCell>
        <mxCell id="p2AEGx6l2dzTs35SkICE-14" value="" style="shape=ellipse;html=1;dashed=0;whitespace=wrap;aspect=fixed;perimeter=ellipsePerimeter;fillColor=#dae8fc;strokeColor=#6c8ebf;" vertex="1" parent="1">
          <mxGeometry x="109" y="693" width="20" height="20" as="geometry" />
        </mxCell>
        <mxCell id="p2AEGx6l2dzTs35SkICE-15" value="" style="shape=ellipse;html=1;dashed=0;whitespace=wrap;aspect=fixed;perimeter=ellipsePerimeter;fillColor=#dae8fc;strokeColor=#6c8ebf;" vertex="1" parent="1">
          <mxGeometry x="91" y="671" width="20" height="20" as="geometry" />
        </mxCell>
        <mxCell id="p2AEGx6l2dzTs35SkICE-16" value="" style="endArrow=classic;html=1;rounded=0;exitX=1;exitY=0;exitDx=0;exitDy=0;entryX=0;entryY=0.5;entryDx=0;entryDy=0;fillColor=#dae8fc;strokeColor=#6c8ebf;" edge="1" parent="1" source="p2AEGx6l2dzTs35SkICE-9" target="p2AEGx6l2dzTs35SkICE-14">
          <mxGeometry width="50" height="50" relative="1" as="geometry">
            <mxPoint x="390" y="710" as="sourcePoint" />
            <mxPoint x="440" y="660" as="targetPoint" />
            <Array as="points" />
          </mxGeometry>
        </mxCell>
        <mxCell id="p2AEGx6l2dzTs35SkICE-17" value="" style="endArrow=classic;html=1;rounded=0;exitX=1;exitY=0;exitDx=0;exitDy=0;entryX=0;entryY=1;entryDx=0;entryDy=0;fillColor=#dae8fc;strokeColor=#6c8ebf;" edge="1" parent="1" source="p2AEGx6l2dzTs35SkICE-10" target="p2AEGx6l2dzTs35SkICE-14">
          <mxGeometry width="50" height="50" relative="1" as="geometry">
            <mxPoint x="330" y="730" as="sourcePoint" />
            <mxPoint x="440" y="660" as="targetPoint" />
          </mxGeometry>
        </mxCell>
        <mxCell id="p2AEGx6l2dzTs35SkICE-18" value="" style="endArrow=classic;html=1;rounded=0;exitX=0;exitY=0;exitDx=0;exitDy=0;entryX=1;entryY=1;entryDx=0;entryDy=0;fillColor=#dae8fc;strokeColor=#6c8ebf;" edge="1" parent="1" source="p2AEGx6l2dzTs35SkICE-10" target="p2AEGx6l2dzTs35SkICE-13">
          <mxGeometry width="50" height="50" relative="1" as="geometry">
            <mxPoint x="390" y="670" as="sourcePoint" />
            <mxPoint x="440" y="620" as="targetPoint" />
          </mxGeometry>
        </mxCell>
        <mxCell id="p2AEGx6l2dzTs35SkICE-19" value="" style="endArrow=classic;html=1;rounded=0;exitX=0.5;exitY=0;exitDx=0;exitDy=0;entryX=1;entryY=1;entryDx=0;entryDy=0;fillColor=#dae8fc;strokeColor=#6c8ebf;" edge="1" parent="1" source="p2AEGx6l2dzTs35SkICE-11" target="p2AEGx6l2dzTs35SkICE-14">
          <mxGeometry width="50" height="50" relative="1" as="geometry">
            <mxPoint x="390" y="670" as="sourcePoint" />
            <mxPoint x="440" y="620" as="targetPoint" />
          </mxGeometry>
        </mxCell>
        <mxCell id="p2AEGx6l2dzTs35SkICE-20" value="" style="endArrow=classic;html=1;rounded=0;exitX=0.5;exitY=0;exitDx=0;exitDy=0;entryX=0;entryY=0.5;entryDx=0;entryDy=0;fillColor=#dae8fc;strokeColor=#6c8ebf;" edge="1" parent="1" source="p2AEGx6l2dzTs35SkICE-13" target="p2AEGx6l2dzTs35SkICE-15">
          <mxGeometry width="50" height="50" relative="1" as="geometry">
            <mxPoint x="390" y="670" as="sourcePoint" />
            <mxPoint x="440" y="620" as="targetPoint" />
          </mxGeometry>
        </mxCell>
        <mxCell id="p2AEGx6l2dzTs35SkICE-21" value="" style="endArrow=classic;html=1;rounded=0;exitX=0.5;exitY=0;exitDx=0;exitDy=0;entryX=1;entryY=0.5;entryDx=0;entryDy=0;fillColor=#dae8fc;strokeColor=#6c8ebf;" edge="1" parent="1" source="p2AEGx6l2dzTs35SkICE-14" target="p2AEGx6l2dzTs35SkICE-15">
          <mxGeometry width="50" height="50" relative="1" as="geometry">
            <mxPoint x="390" y="670" as="sourcePoint" />
            <mxPoint x="440" y="620" as="targetPoint" />
          </mxGeometry>
        </mxCell>
        <mxCell id="p2AEGx6l2dzTs35SkICE-22" value="" style="shape=ellipse;html=1;dashed=0;whitespace=wrap;aspect=fixed;perimeter=ellipsePerimeter;fillColor=#d5e8d4;strokeColor=#82b366;" vertex="1" parent="1">
          <mxGeometry x="161" y="723" width="20" height="20" as="geometry" />
        </mxCell>
        <mxCell id="p2AEGx6l2dzTs35SkICE-23" value="" style="shape=ellipse;html=1;dashed=0;whitespace=wrap;aspect=fixed;perimeter=ellipsePerimeter;fillColor=#d5e8d4;strokeColor=#82b366;" vertex="1" parent="1">
          <mxGeometry x="191" y="723" width="20" height="20" as="geometry" />
        </mxCell>
        <mxCell id="p2AEGx6l2dzTs35SkICE-24" value="" style="shape=ellipse;html=1;dashed=0;whitespace=wrap;aspect=fixed;perimeter=ellipsePerimeter;fillColor=#d5e8d4;strokeColor=#82b366;" vertex="1" parent="1">
          <mxGeometry x="221" y="723" width="20" height="20" as="geometry" />
        </mxCell>
        <mxCell id="p2AEGx6l2dzTs35SkICE-25" value="" style="endArrow=classic;html=1;rounded=0;entryX=0;entryY=1;entryDx=0;entryDy=0;exitX=0;exitY=0;exitDx=0;exitDy=0;fillColor=#d5e8d4;strokeColor=#82b366;" edge="1" parent="1" source="p2AEGx6l2dzTs35SkICE-22" target="p2AEGx6l2dzTs35SkICE-26">
          <mxGeometry width="50" height="50" relative="1" as="geometry">
            <mxPoint x="171" y="720" as="sourcePoint" />
            <mxPoint x="191" y="700" as="targetPoint" />
          </mxGeometry>
        </mxCell>
        <mxCell id="p2AEGx6l2dzTs35SkICE-26" value="" style="shape=ellipse;html=1;dashed=0;whitespace=wrap;aspect=fixed;perimeter=ellipsePerimeter;fillColor=#d5e8d4;strokeColor=#82b366;" vertex="1" parent="1">
          <mxGeometry x="175" y="692" width="20" height="20" as="geometry" />
        </mxCell>
        <mxCell id="p2AEGx6l2dzTs35SkICE-27" value="" style="shape=ellipse;html=1;dashed=0;whitespace=wrap;aspect=fixed;perimeter=ellipsePerimeter;fillColor=#d5e8d4;strokeColor=#82b366;" vertex="1" parent="1">
          <mxGeometry x="211" y="692" width="20" height="20" as="geometry" />
        </mxCell>
        <mxCell id="p2AEGx6l2dzTs35SkICE-28" value="" style="shape=ellipse;html=1;dashed=0;whitespace=wrap;aspect=fixed;perimeter=ellipsePerimeter;fillColor=#d5e8d4;strokeColor=#82b366;" vertex="1" parent="1">
          <mxGeometry x="193" y="670" width="20" height="20" as="geometry" />
        </mxCell>
        <mxCell id="p2AEGx6l2dzTs35SkICE-29" value="" style="endArrow=classic;html=1;rounded=0;exitX=1;exitY=0;exitDx=0;exitDy=0;entryX=0;entryY=0.5;entryDx=0;entryDy=0;fillColor=#d5e8d4;strokeColor=#82b366;" edge="1" parent="1" source="p2AEGx6l2dzTs35SkICE-22" target="p2AEGx6l2dzTs35SkICE-27">
          <mxGeometry width="50" height="50" relative="1" as="geometry">
            <mxPoint x="492" y="709" as="sourcePoint" />
            <mxPoint x="542" y="659" as="targetPoint" />
            <Array as="points" />
          </mxGeometry>
        </mxCell>
        <mxCell id="p2AEGx6l2dzTs35SkICE-30" value="" style="endArrow=classic;html=1;rounded=0;exitX=1;exitY=0;exitDx=0;exitDy=0;entryX=0;entryY=1;entryDx=0;entryDy=0;fillColor=#d5e8d4;strokeColor=#82b366;" edge="1" parent="1" source="p2AEGx6l2dzTs35SkICE-23" target="p2AEGx6l2dzTs35SkICE-27">
          <mxGeometry width="50" height="50" relative="1" as="geometry">
            <mxPoint x="432" y="729" as="sourcePoint" />
            <mxPoint x="542" y="659" as="targetPoint" />
          </mxGeometry>
        </mxCell>
        <mxCell id="p2AEGx6l2dzTs35SkICE-31" value="" style="endArrow=classic;html=1;rounded=0;exitX=0;exitY=0;exitDx=0;exitDy=0;entryX=1;entryY=1;entryDx=0;entryDy=0;fillColor=#d5e8d4;strokeColor=#82b366;" edge="1" parent="1" source="p2AEGx6l2dzTs35SkICE-23" target="p2AEGx6l2dzTs35SkICE-26">
          <mxGeometry width="50" height="50" relative="1" as="geometry">
            <mxPoint x="492" y="669" as="sourcePoint" />
            <mxPoint x="542" y="619" as="targetPoint" />
          </mxGeometry>
        </mxCell>
        <mxCell id="p2AEGx6l2dzTs35SkICE-32" value="" style="endArrow=classic;html=1;rounded=0;exitX=0.5;exitY=0;exitDx=0;exitDy=0;entryX=1;entryY=1;entryDx=0;entryDy=0;fillColor=#d5e8d4;strokeColor=#82b366;" edge="1" parent="1" source="p2AEGx6l2dzTs35SkICE-24" target="p2AEGx6l2dzTs35SkICE-27">
          <mxGeometry width="50" height="50" relative="1" as="geometry">
            <mxPoint x="492" y="669" as="sourcePoint" />
            <mxPoint x="542" y="619" as="targetPoint" />
          </mxGeometry>
        </mxCell>
        <mxCell id="p2AEGx6l2dzTs35SkICE-33" value="" style="endArrow=classic;html=1;rounded=0;exitX=0.5;exitY=0;exitDx=0;exitDy=0;entryX=0;entryY=0.5;entryDx=0;entryDy=0;fillColor=#d5e8d4;strokeColor=#82b366;" edge="1" parent="1" source="p2AEGx6l2dzTs35SkICE-26" target="p2AEGx6l2dzTs35SkICE-28">
          <mxGeometry width="50" height="50" relative="1" as="geometry">
            <mxPoint x="492" y="669" as="sourcePoint" />
            <mxPoint x="542" y="619" as="targetPoint" />
          </mxGeometry>
        </mxCell>
        <mxCell id="p2AEGx6l2dzTs35SkICE-34" value="" style="endArrow=classic;html=1;rounded=0;exitX=0.5;exitY=0;exitDx=0;exitDy=0;entryX=1;entryY=0.5;entryDx=0;entryDy=0;fillColor=#d5e8d4;strokeColor=#82b366;" edge="1" parent="1" source="p2AEGx6l2dzTs35SkICE-27" target="p2AEGx6l2dzTs35SkICE-28">
          <mxGeometry width="50" height="50" relative="1" as="geometry">
            <mxPoint x="492" y="669" as="sourcePoint" />
            <mxPoint x="542" y="619" as="targetPoint" />
          </mxGeometry>
        </mxCell>
        <mxCell id="p2AEGx6l2dzTs35SkICE-35" value="" style="shape=ellipse;html=1;dashed=0;whitespace=wrap;aspect=fixed;perimeter=ellipsePerimeter;fillColor=#e1d5e7;strokeColor=#9673a6;" vertex="1" parent="1">
          <mxGeometry x="271" y="723" width="20" height="20" as="geometry" />
        </mxCell>
        <mxCell id="p2AEGx6l2dzTs35SkICE-36" value="" style="shape=ellipse;html=1;dashed=0;whitespace=wrap;aspect=fixed;perimeter=ellipsePerimeter;fillColor=#e1d5e7;strokeColor=#9673a6;" vertex="1" parent="1">
          <mxGeometry x="301" y="723" width="20" height="20" as="geometry" />
        </mxCell>
        <mxCell id="p2AEGx6l2dzTs35SkICE-37" value="" style="shape=ellipse;html=1;dashed=0;whitespace=wrap;aspect=fixed;perimeter=ellipsePerimeter;fillColor=#e1d5e7;strokeColor=#9673a6;" vertex="1" parent="1">
          <mxGeometry x="331" y="723" width="20" height="20" as="geometry" />
        </mxCell>
        <mxCell id="p2AEGx6l2dzTs35SkICE-38" value="" style="endArrow=classic;html=1;rounded=0;entryX=0;entryY=1;entryDx=0;entryDy=0;exitX=0;exitY=0;exitDx=0;exitDy=0;fillColor=#e1d5e7;strokeColor=#9673a6;" edge="1" parent="1" source="p2AEGx6l2dzTs35SkICE-35" target="p2AEGx6l2dzTs35SkICE-39">
          <mxGeometry width="50" height="50" relative="1" as="geometry">
            <mxPoint x="281" y="720" as="sourcePoint" />
            <mxPoint x="301" y="700" as="targetPoint" />
          </mxGeometry>
        </mxCell>
        <mxCell id="p2AEGx6l2dzTs35SkICE-39" value="" style="shape=ellipse;html=1;dashed=0;whitespace=wrap;aspect=fixed;perimeter=ellipsePerimeter;fillColor=#e1d5e7;strokeColor=#9673a6;" vertex="1" parent="1">
          <mxGeometry x="285" y="692" width="20" height="20" as="geometry" />
        </mxCell>
        <mxCell id="p2AEGx6l2dzTs35SkICE-40" value="" style="shape=ellipse;html=1;dashed=0;whitespace=wrap;aspect=fixed;perimeter=ellipsePerimeter;fillColor=#e1d5e7;strokeColor=#9673a6;" vertex="1" parent="1">
          <mxGeometry x="321" y="692" width="20" height="20" as="geometry" />
        </mxCell>
        <mxCell id="p2AEGx6l2dzTs35SkICE-41" value="" style="shape=ellipse;html=1;dashed=0;whitespace=wrap;aspect=fixed;perimeter=ellipsePerimeter;fillColor=#e1d5e7;strokeColor=#9673a6;" vertex="1" parent="1">
          <mxGeometry x="303" y="670" width="20" height="20" as="geometry" />
        </mxCell>
        <mxCell id="p2AEGx6l2dzTs35SkICE-42" value="" style="endArrow=classic;html=1;rounded=0;exitX=1;exitY=0;exitDx=0;exitDy=0;entryX=0;entryY=0.5;entryDx=0;entryDy=0;fillColor=#e1d5e7;strokeColor=#9673a6;" edge="1" parent="1" source="p2AEGx6l2dzTs35SkICE-35" target="p2AEGx6l2dzTs35SkICE-40">
          <mxGeometry width="50" height="50" relative="1" as="geometry">
            <mxPoint x="602" y="709" as="sourcePoint" />
            <mxPoint x="652" y="659" as="targetPoint" />
            <Array as="points" />
          </mxGeometry>
        </mxCell>
        <mxCell id="p2AEGx6l2dzTs35SkICE-43" value="" style="endArrow=classic;html=1;rounded=0;exitX=1;exitY=0;exitDx=0;exitDy=0;entryX=0;entryY=1;entryDx=0;entryDy=0;fillColor=#e1d5e7;strokeColor=#9673a6;" edge="1" parent="1" source="p2AEGx6l2dzTs35SkICE-36" target="p2AEGx6l2dzTs35SkICE-40">
          <mxGeometry width="50" height="50" relative="1" as="geometry">
            <mxPoint x="542" y="729" as="sourcePoint" />
            <mxPoint x="652" y="659" as="targetPoint" />
          </mxGeometry>
        </mxCell>
        <mxCell id="p2AEGx6l2dzTs35SkICE-44" value="" style="endArrow=classic;html=1;rounded=0;exitX=0;exitY=0;exitDx=0;exitDy=0;entryX=1;entryY=1;entryDx=0;entryDy=0;fillColor=#e1d5e7;strokeColor=#9673a6;" edge="1" parent="1" source="p2AEGx6l2dzTs35SkICE-36" target="p2AEGx6l2dzTs35SkICE-39">
          <mxGeometry width="50" height="50" relative="1" as="geometry">
            <mxPoint x="602" y="669" as="sourcePoint" />
            <mxPoint x="652" y="619" as="targetPoint" />
          </mxGeometry>
        </mxCell>
        <mxCell id="p2AEGx6l2dzTs35SkICE-45" value="" style="endArrow=classic;html=1;rounded=0;exitX=0.5;exitY=0;exitDx=0;exitDy=0;entryX=1;entryY=1;entryDx=0;entryDy=0;fillColor=#e1d5e7;strokeColor=#9673a6;" edge="1" parent="1" source="p2AEGx6l2dzTs35SkICE-37" target="p2AEGx6l2dzTs35SkICE-40">
          <mxGeometry width="50" height="50" relative="1" as="geometry">
            <mxPoint x="602" y="669" as="sourcePoint" />
            <mxPoint x="652" y="619" as="targetPoint" />
          </mxGeometry>
        </mxCell>
        <mxCell id="p2AEGx6l2dzTs35SkICE-46" value="" style="endArrow=classic;html=1;rounded=0;exitX=0.5;exitY=0;exitDx=0;exitDy=0;entryX=0;entryY=0.5;entryDx=0;entryDy=0;fillColor=#e1d5e7;strokeColor=#9673a6;" edge="1" parent="1" source="p2AEGx6l2dzTs35SkICE-39" target="p2AEGx6l2dzTs35SkICE-41">
          <mxGeometry width="50" height="50" relative="1" as="geometry">
            <mxPoint x="602" y="669" as="sourcePoint" />
            <mxPoint x="652" y="619" as="targetPoint" />
          </mxGeometry>
        </mxCell>
        <mxCell id="p2AEGx6l2dzTs35SkICE-47" value="" style="endArrow=classic;html=1;rounded=0;exitX=0.5;exitY=0;exitDx=0;exitDy=0;entryX=1;entryY=0.5;entryDx=0;entryDy=0;fillColor=#e1d5e7;strokeColor=#9673a6;" edge="1" parent="1" source="p2AEGx6l2dzTs35SkICE-40" target="p2AEGx6l2dzTs35SkICE-41">
          <mxGeometry width="50" height="50" relative="1" as="geometry">
            <mxPoint x="602" y="669" as="sourcePoint" />
            <mxPoint x="652" y="619" as="targetPoint" />
          </mxGeometry>
        </mxCell>
        <mxCell id="p2AEGx6l2dzTs35SkICE-48" value="" style="rounded=1;whiteSpace=wrap;html=1;" vertex="1" parent="1">
          <mxGeometry x="41.5" y="454" width="338.5" height="120" as="geometry" />
        </mxCell>
        <mxCell id="p2AEGx6l2dzTs35SkICE-49" value="" style="shape=ellipse;html=1;dashed=0;whitespace=wrap;aspect=fixed;perimeter=ellipsePerimeter;fillColor=#dae8fc;strokeColor=#6c8ebf;" vertex="1" parent="1">
          <mxGeometry x="65.25" y="528" width="20" height="20" as="geometry" />
        </mxCell>
        <mxCell id="p2AEGx6l2dzTs35SkICE-50" value="" style="shape=ellipse;html=1;dashed=0;whitespace=wrap;aspect=fixed;perimeter=ellipsePerimeter;fillColor=#dae8fc;strokeColor=#6c8ebf;" vertex="1" parent="1">
          <mxGeometry x="95.25" y="528" width="20" height="20" as="geometry" />
        </mxCell>
        <mxCell id="p2AEGx6l2dzTs35SkICE-51" value="" style="shape=ellipse;html=1;dashed=0;whitespace=wrap;aspect=fixed;perimeter=ellipsePerimeter;fillColor=#dae8fc;strokeColor=#6c8ebf;" vertex="1" parent="1">
          <mxGeometry x="125.25" y="528" width="20" height="20" as="geometry" />
        </mxCell>
        <mxCell id="p2AEGx6l2dzTs35SkICE-52" value="" style="endArrow=classic;html=1;rounded=0;entryX=0;entryY=1;entryDx=0;entryDy=0;exitX=0;exitY=0;exitDx=0;exitDy=0;fillColor=#dae8fc;strokeColor=#6c8ebf;" edge="1" parent="1" source="p2AEGx6l2dzTs35SkICE-49" target="p2AEGx6l2dzTs35SkICE-53">
          <mxGeometry width="50" height="50" relative="1" as="geometry">
            <mxPoint x="75.25" y="525" as="sourcePoint" />
            <mxPoint x="95.25" y="505" as="targetPoint" />
          </mxGeometry>
        </mxCell>
        <mxCell id="p2AEGx6l2dzTs35SkICE-53" value="" style="shape=ellipse;html=1;dashed=0;whitespace=wrap;aspect=fixed;perimeter=ellipsePerimeter;fillColor=#dae8fc;strokeColor=#6c8ebf;" vertex="1" parent="1">
          <mxGeometry x="79.25" y="497" width="20" height="20" as="geometry" />
        </mxCell>
        <mxCell id="p2AEGx6l2dzTs35SkICE-54" value="" style="shape=ellipse;html=1;dashed=0;whitespace=wrap;aspect=fixed;perimeter=ellipsePerimeter;fillColor=#dae8fc;strokeColor=#6c8ebf;" vertex="1" parent="1">
          <mxGeometry x="115.25" y="497" width="20" height="20" as="geometry" />
        </mxCell>
        <mxCell id="p2AEGx6l2dzTs35SkICE-55" value="" style="shape=ellipse;html=1;dashed=0;whitespace=wrap;aspect=fixed;perimeter=ellipsePerimeter;fillColor=#dae8fc;strokeColor=#6c8ebf;" vertex="1" parent="1">
          <mxGeometry x="97.25" y="475" width="20" height="20" as="geometry" />
        </mxCell>
        <mxCell id="p2AEGx6l2dzTs35SkICE-56" value="" style="endArrow=classic;html=1;rounded=0;exitX=1;exitY=0;exitDx=0;exitDy=0;entryX=0;entryY=0.5;entryDx=0;entryDy=0;fillColor=#dae8fc;strokeColor=#6c8ebf;" edge="1" parent="1" source="p2AEGx6l2dzTs35SkICE-49" target="p2AEGx6l2dzTs35SkICE-54">
          <mxGeometry width="50" height="50" relative="1" as="geometry">
            <mxPoint x="396.25" y="514" as="sourcePoint" />
            <mxPoint x="446.25" y="464" as="targetPoint" />
            <Array as="points" />
          </mxGeometry>
        </mxCell>
        <mxCell id="p2AEGx6l2dzTs35SkICE-57" value="" style="endArrow=classic;html=1;rounded=0;exitX=1;exitY=0;exitDx=0;exitDy=0;entryX=0;entryY=1;entryDx=0;entryDy=0;fillColor=#dae8fc;strokeColor=#6c8ebf;" edge="1" parent="1" source="p2AEGx6l2dzTs35SkICE-50" target="p2AEGx6l2dzTs35SkICE-54">
          <mxGeometry width="50" height="50" relative="1" as="geometry">
            <mxPoint x="336.25" y="534" as="sourcePoint" />
            <mxPoint x="446.25" y="464" as="targetPoint" />
          </mxGeometry>
        </mxCell>
        <mxCell id="p2AEGx6l2dzTs35SkICE-58" value="" style="endArrow=classic;html=1;rounded=0;exitX=0;exitY=0;exitDx=0;exitDy=0;entryX=1;entryY=1;entryDx=0;entryDy=0;fillColor=#dae8fc;strokeColor=#6c8ebf;" edge="1" parent="1" source="p2AEGx6l2dzTs35SkICE-50" target="p2AEGx6l2dzTs35SkICE-53">
          <mxGeometry width="50" height="50" relative="1" as="geometry">
            <mxPoint x="396.25" y="474" as="sourcePoint" />
            <mxPoint x="446.25" y="424" as="targetPoint" />
          </mxGeometry>
        </mxCell>
        <mxCell id="p2AEGx6l2dzTs35SkICE-59" value="" style="endArrow=classic;html=1;rounded=0;exitX=0.5;exitY=0;exitDx=0;exitDy=0;entryX=1;entryY=1;entryDx=0;entryDy=0;fillColor=#dae8fc;strokeColor=#6c8ebf;" edge="1" parent="1" source="p2AEGx6l2dzTs35SkICE-51" target="p2AEGx6l2dzTs35SkICE-54">
          <mxGeometry width="50" height="50" relative="1" as="geometry">
            <mxPoint x="396.25" y="474" as="sourcePoint" />
            <mxPoint x="446.25" y="424" as="targetPoint" />
          </mxGeometry>
        </mxCell>
        <mxCell id="p2AEGx6l2dzTs35SkICE-60" value="" style="endArrow=classic;html=1;rounded=0;exitX=0.5;exitY=0;exitDx=0;exitDy=0;entryX=0;entryY=0.5;entryDx=0;entryDy=0;fillColor=#dae8fc;strokeColor=#6c8ebf;" edge="1" parent="1" source="p2AEGx6l2dzTs35SkICE-53" target="p2AEGx6l2dzTs35SkICE-55">
          <mxGeometry width="50" height="50" relative="1" as="geometry">
            <mxPoint x="396.25" y="474" as="sourcePoint" />
            <mxPoint x="446.25" y="424" as="targetPoint" />
          </mxGeometry>
        </mxCell>
        <mxCell id="p2AEGx6l2dzTs35SkICE-61" value="" style="endArrow=classic;html=1;rounded=0;exitX=0.5;exitY=0;exitDx=0;exitDy=0;entryX=1;entryY=0.5;entryDx=0;entryDy=0;fillColor=#dae8fc;strokeColor=#6c8ebf;" edge="1" parent="1" source="p2AEGx6l2dzTs35SkICE-54" target="p2AEGx6l2dzTs35SkICE-55">
          <mxGeometry width="50" height="50" relative="1" as="geometry">
            <mxPoint x="396.25" y="474" as="sourcePoint" />
            <mxPoint x="446.25" y="424" as="targetPoint" />
          </mxGeometry>
        </mxCell>
        <mxCell id="p2AEGx6l2dzTs35SkICE-62" value="" style="shape=ellipse;html=1;dashed=0;whitespace=wrap;aspect=fixed;perimeter=ellipsePerimeter;fillColor=#d5e8d4;strokeColor=#82b366;" vertex="1" parent="1">
          <mxGeometry x="167.25" y="527" width="20" height="20" as="geometry" />
        </mxCell>
        <mxCell id="p2AEGx6l2dzTs35SkICE-63" value="" style="shape=ellipse;html=1;dashed=0;whitespace=wrap;aspect=fixed;perimeter=ellipsePerimeter;fillColor=#d5e8d4;strokeColor=#82b366;" vertex="1" parent="1">
          <mxGeometry x="197.25" y="527" width="20" height="20" as="geometry" />
        </mxCell>
        <mxCell id="p2AEGx6l2dzTs35SkICE-64" value="" style="shape=ellipse;html=1;dashed=0;whitespace=wrap;aspect=fixed;perimeter=ellipsePerimeter;fillColor=#d5e8d4;strokeColor=#82b366;" vertex="1" parent="1">
          <mxGeometry x="227.25" y="527" width="20" height="20" as="geometry" />
        </mxCell>
        <mxCell id="p2AEGx6l2dzTs35SkICE-65" value="" style="endArrow=classic;html=1;rounded=0;entryX=0;entryY=1;entryDx=0;entryDy=0;exitX=0;exitY=0;exitDx=0;exitDy=0;fillColor=#d5e8d4;strokeColor=#82b366;" edge="1" parent="1" source="p2AEGx6l2dzTs35SkICE-62" target="p2AEGx6l2dzTs35SkICE-66">
          <mxGeometry width="50" height="50" relative="1" as="geometry">
            <mxPoint x="177.25" y="524" as="sourcePoint" />
            <mxPoint x="197.25" y="504" as="targetPoint" />
          </mxGeometry>
        </mxCell>
        <mxCell id="p2AEGx6l2dzTs35SkICE-66" value="" style="shape=ellipse;html=1;dashed=0;whitespace=wrap;aspect=fixed;perimeter=ellipsePerimeter;fillColor=#d5e8d4;strokeColor=#82b366;" vertex="1" parent="1">
          <mxGeometry x="181.25" y="496" width="20" height="20" as="geometry" />
        </mxCell>
        <mxCell id="p2AEGx6l2dzTs35SkICE-67" value="" style="shape=ellipse;html=1;dashed=0;whitespace=wrap;aspect=fixed;perimeter=ellipsePerimeter;fillColor=#d5e8d4;strokeColor=#82b366;" vertex="1" parent="1">
          <mxGeometry x="217.25" y="496" width="20" height="20" as="geometry" />
        </mxCell>
        <mxCell id="p2AEGx6l2dzTs35SkICE-68" value="" style="shape=ellipse;html=1;dashed=0;whitespace=wrap;aspect=fixed;perimeter=ellipsePerimeter;fillColor=#d5e8d4;strokeColor=#82b366;" vertex="1" parent="1">
          <mxGeometry x="199.25" y="474" width="20" height="20" as="geometry" />
        </mxCell>
        <mxCell id="p2AEGx6l2dzTs35SkICE-69" value="" style="endArrow=classic;html=1;rounded=0;exitX=1;exitY=0;exitDx=0;exitDy=0;entryX=0;entryY=0.5;entryDx=0;entryDy=0;fillColor=#d5e8d4;strokeColor=#82b366;" edge="1" parent="1" source="p2AEGx6l2dzTs35SkICE-62" target="p2AEGx6l2dzTs35SkICE-67">
          <mxGeometry width="50" height="50" relative="1" as="geometry">
            <mxPoint x="498.25" y="513" as="sourcePoint" />
            <mxPoint x="548.25" y="463" as="targetPoint" />
            <Array as="points" />
          </mxGeometry>
        </mxCell>
        <mxCell id="p2AEGx6l2dzTs35SkICE-70" value="" style="endArrow=classic;html=1;rounded=0;exitX=1;exitY=0;exitDx=0;exitDy=0;entryX=0;entryY=1;entryDx=0;entryDy=0;fillColor=#d5e8d4;strokeColor=#82b366;" edge="1" parent="1" source="p2AEGx6l2dzTs35SkICE-63" target="p2AEGx6l2dzTs35SkICE-67">
          <mxGeometry width="50" height="50" relative="1" as="geometry">
            <mxPoint x="438.25" y="533" as="sourcePoint" />
            <mxPoint x="548.25" y="463" as="targetPoint" />
          </mxGeometry>
        </mxCell>
        <mxCell id="p2AEGx6l2dzTs35SkICE-71" value="" style="endArrow=classic;html=1;rounded=0;exitX=0;exitY=0;exitDx=0;exitDy=0;entryX=1;entryY=1;entryDx=0;entryDy=0;fillColor=#d5e8d4;strokeColor=#82b366;" edge="1" parent="1" source="p2AEGx6l2dzTs35SkICE-63" target="p2AEGx6l2dzTs35SkICE-66">
          <mxGeometry width="50" height="50" relative="1" as="geometry">
            <mxPoint x="498.25" y="473" as="sourcePoint" />
            <mxPoint x="548.25" y="423" as="targetPoint" />
          </mxGeometry>
        </mxCell>
        <mxCell id="p2AEGx6l2dzTs35SkICE-72" value="" style="endArrow=classic;html=1;rounded=0;exitX=0.5;exitY=0;exitDx=0;exitDy=0;entryX=1;entryY=1;entryDx=0;entryDy=0;fillColor=#d5e8d4;strokeColor=#82b366;" edge="1" parent="1" source="p2AEGx6l2dzTs35SkICE-64" target="p2AEGx6l2dzTs35SkICE-67">
          <mxGeometry width="50" height="50" relative="1" as="geometry">
            <mxPoint x="498.25" y="473" as="sourcePoint" />
            <mxPoint x="548.25" y="423" as="targetPoint" />
          </mxGeometry>
        </mxCell>
        <mxCell id="p2AEGx6l2dzTs35SkICE-73" value="" style="endArrow=classic;html=1;rounded=0;exitX=0.5;exitY=0;exitDx=0;exitDy=0;entryX=0;entryY=0.5;entryDx=0;entryDy=0;fillColor=#d5e8d4;strokeColor=#82b366;" edge="1" parent="1" source="p2AEGx6l2dzTs35SkICE-66" target="p2AEGx6l2dzTs35SkICE-68">
          <mxGeometry width="50" height="50" relative="1" as="geometry">
            <mxPoint x="498.25" y="473" as="sourcePoint" />
            <mxPoint x="548.25" y="423" as="targetPoint" />
          </mxGeometry>
        </mxCell>
        <mxCell id="p2AEGx6l2dzTs35SkICE-74" value="" style="endArrow=classic;html=1;rounded=0;exitX=0.5;exitY=0;exitDx=0;exitDy=0;entryX=1;entryY=0.5;entryDx=0;entryDy=0;fillColor=#d5e8d4;strokeColor=#82b366;" edge="1" parent="1" source="p2AEGx6l2dzTs35SkICE-67" target="p2AEGx6l2dzTs35SkICE-68">
          <mxGeometry width="50" height="50" relative="1" as="geometry">
            <mxPoint x="498.25" y="473" as="sourcePoint" />
            <mxPoint x="548.25" y="423" as="targetPoint" />
          </mxGeometry>
        </mxCell>
        <mxCell id="p2AEGx6l2dzTs35SkICE-75" value="" style="shape=ellipse;html=1;dashed=0;whitespace=wrap;aspect=fixed;perimeter=ellipsePerimeter;fillColor=#e1d5e7;strokeColor=#9673a6;" vertex="1" parent="1">
          <mxGeometry x="277.25" y="527" width="20" height="20" as="geometry" />
        </mxCell>
        <mxCell id="p2AEGx6l2dzTs35SkICE-76" value="" style="shape=ellipse;html=1;dashed=0;whitespace=wrap;aspect=fixed;perimeter=ellipsePerimeter;fillColor=#e1d5e7;strokeColor=#9673a6;" vertex="1" parent="1">
          <mxGeometry x="307.25" y="527" width="20" height="20" as="geometry" />
        </mxCell>
        <mxCell id="p2AEGx6l2dzTs35SkICE-77" value="" style="shape=ellipse;html=1;dashed=0;whitespace=wrap;aspect=fixed;perimeter=ellipsePerimeter;fillColor=#e1d5e7;strokeColor=#9673a6;" vertex="1" parent="1">
          <mxGeometry x="337.25" y="527" width="20" height="20" as="geometry" />
        </mxCell>
        <mxCell id="p2AEGx6l2dzTs35SkICE-78" value="" style="endArrow=classic;html=1;rounded=0;entryX=0;entryY=1;entryDx=0;entryDy=0;exitX=0;exitY=0;exitDx=0;exitDy=0;fillColor=#e1d5e7;strokeColor=#9673a6;" edge="1" parent="1" source="p2AEGx6l2dzTs35SkICE-75" target="p2AEGx6l2dzTs35SkICE-79">
          <mxGeometry width="50" height="50" relative="1" as="geometry">
            <mxPoint x="287.25" y="524" as="sourcePoint" />
            <mxPoint x="307.25" y="504" as="targetPoint" />
          </mxGeometry>
        </mxCell>
        <mxCell id="p2AEGx6l2dzTs35SkICE-79" value="" style="shape=ellipse;html=1;dashed=0;whitespace=wrap;aspect=fixed;perimeter=ellipsePerimeter;fillColor=#e1d5e7;strokeColor=#9673a6;" vertex="1" parent="1">
          <mxGeometry x="291.25" y="496" width="20" height="20" as="geometry" />
        </mxCell>
        <mxCell id="p2AEGx6l2dzTs35SkICE-80" value="" style="shape=ellipse;html=1;dashed=0;whitespace=wrap;aspect=fixed;perimeter=ellipsePerimeter;fillColor=#e1d5e7;strokeColor=#9673a6;" vertex="1" parent="1">
          <mxGeometry x="327.25" y="496" width="20" height="20" as="geometry" />
        </mxCell>
        <mxCell id="p2AEGx6l2dzTs35SkICE-81" value="" style="shape=ellipse;html=1;dashed=0;whitespace=wrap;aspect=fixed;perimeter=ellipsePerimeter;fillColor=#e1d5e7;strokeColor=#9673a6;" vertex="1" parent="1">
          <mxGeometry x="309.25" y="474" width="20" height="20" as="geometry" />
        </mxCell>
        <mxCell id="p2AEGx6l2dzTs35SkICE-82" value="" style="endArrow=classic;html=1;rounded=0;exitX=1;exitY=0;exitDx=0;exitDy=0;entryX=0;entryY=0.5;entryDx=0;entryDy=0;fillColor=#e1d5e7;strokeColor=#9673a6;" edge="1" parent="1" source="p2AEGx6l2dzTs35SkICE-75" target="p2AEGx6l2dzTs35SkICE-80">
          <mxGeometry width="50" height="50" relative="1" as="geometry">
            <mxPoint x="608.25" y="513" as="sourcePoint" />
            <mxPoint x="658.25" y="463" as="targetPoint" />
            <Array as="points" />
          </mxGeometry>
        </mxCell>
        <mxCell id="p2AEGx6l2dzTs35SkICE-83" value="" style="endArrow=classic;html=1;rounded=0;exitX=1;exitY=0;exitDx=0;exitDy=0;entryX=0;entryY=1;entryDx=0;entryDy=0;fillColor=#e1d5e7;strokeColor=#9673a6;" edge="1" parent="1" source="p2AEGx6l2dzTs35SkICE-76" target="p2AEGx6l2dzTs35SkICE-80">
          <mxGeometry width="50" height="50" relative="1" as="geometry">
            <mxPoint x="548.25" y="533" as="sourcePoint" />
            <mxPoint x="658.25" y="463" as="targetPoint" />
          </mxGeometry>
        </mxCell>
        <mxCell id="p2AEGx6l2dzTs35SkICE-84" value="" style="endArrow=classic;html=1;rounded=0;exitX=0;exitY=0;exitDx=0;exitDy=0;entryX=1;entryY=1;entryDx=0;entryDy=0;fillColor=#e1d5e7;strokeColor=#9673a6;" edge="1" parent="1" source="p2AEGx6l2dzTs35SkICE-76" target="p2AEGx6l2dzTs35SkICE-79">
          <mxGeometry width="50" height="50" relative="1" as="geometry">
            <mxPoint x="608.25" y="473" as="sourcePoint" />
            <mxPoint x="658.25" y="423" as="targetPoint" />
          </mxGeometry>
        </mxCell>
        <mxCell id="p2AEGx6l2dzTs35SkICE-85" value="" style="endArrow=classic;html=1;rounded=0;exitX=0.5;exitY=0;exitDx=0;exitDy=0;entryX=1;entryY=1;entryDx=0;entryDy=0;fillColor=#e1d5e7;strokeColor=#9673a6;" edge="1" parent="1" source="p2AEGx6l2dzTs35SkICE-77" target="p2AEGx6l2dzTs35SkICE-80">
          <mxGeometry width="50" height="50" relative="1" as="geometry">
            <mxPoint x="608.25" y="473" as="sourcePoint" />
            <mxPoint x="658.25" y="423" as="targetPoint" />
          </mxGeometry>
        </mxCell>
        <mxCell id="p2AEGx6l2dzTs35SkICE-86" value="" style="endArrow=classic;html=1;rounded=0;exitX=0.5;exitY=0;exitDx=0;exitDy=0;entryX=0;entryY=0.5;entryDx=0;entryDy=0;fillColor=#e1d5e7;strokeColor=#9673a6;" edge="1" parent="1" source="p2AEGx6l2dzTs35SkICE-79" target="p2AEGx6l2dzTs35SkICE-81">
          <mxGeometry width="50" height="50" relative="1" as="geometry">
            <mxPoint x="608.25" y="473" as="sourcePoint" />
            <mxPoint x="658.25" y="423" as="targetPoint" />
          </mxGeometry>
        </mxCell>
        <mxCell id="p2AEGx6l2dzTs35SkICE-87" value="" style="endArrow=classic;html=1;rounded=0;exitX=0.5;exitY=0;exitDx=0;exitDy=0;entryX=1;entryY=0.5;entryDx=0;entryDy=0;fillColor=#e1d5e7;strokeColor=#9673a6;" edge="1" parent="1" source="p2AEGx6l2dzTs35SkICE-80" target="p2AEGx6l2dzTs35SkICE-81">
          <mxGeometry width="50" height="50" relative="1" as="geometry">
            <mxPoint x="608.25" y="473" as="sourcePoint" />
            <mxPoint x="658.25" y="423" as="targetPoint" />
          </mxGeometry>
        </mxCell>
        <mxCell id="p2AEGx6l2dzTs35SkICE-88" value="" style="shape=ellipse;html=1;dashed=0;whitespace=wrap;aspect=fixed;perimeter=ellipsePerimeter;fillColor=#6d8764;strokeColor=#3A5431;fontColor=#ffffff;" vertex="1" parent="1">
          <mxGeometry x="389" y="632" width="20" height="20" as="geometry" />
        </mxCell>
        <mxCell id="p2AEGx6l2dzTs35SkICE-89" value="" style="shape=ellipse;html=1;dashed=0;whitespace=wrap;aspect=fixed;perimeter=ellipsePerimeter;fillColor=#6d8764;strokeColor=#3A5431;fontColor=#ffffff;" vertex="1" parent="1">
          <mxGeometry x="419" y="632" width="20" height="20" as="geometry" />
        </mxCell>
        <mxCell id="p2AEGx6l2dzTs35SkICE-90" value="" style="shape=ellipse;html=1;dashed=0;whitespace=wrap;aspect=fixed;perimeter=ellipsePerimeter;fillColor=#6d8764;strokeColor=#3A5431;fontColor=#ffffff;" vertex="1" parent="1">
          <mxGeometry x="449" y="632" width="20" height="20" as="geometry" />
        </mxCell>
        <mxCell id="p2AEGx6l2dzTs35SkICE-91" value="" style="endArrow=classic;html=1;rounded=0;entryX=0;entryY=1;entryDx=0;entryDy=0;exitX=0;exitY=0;exitDx=0;exitDy=0;fillColor=#6d8764;strokeColor=#3A5431;" edge="1" parent="1" source="p2AEGx6l2dzTs35SkICE-88" target="p2AEGx6l2dzTs35SkICE-92">
          <mxGeometry width="50" height="50" relative="1" as="geometry">
            <mxPoint x="399" y="629" as="sourcePoint" />
            <mxPoint x="419" y="609" as="targetPoint" />
          </mxGeometry>
        </mxCell>
        <mxCell id="p2AEGx6l2dzTs35SkICE-92" value="" style="shape=ellipse;html=1;dashed=0;whitespace=wrap;aspect=fixed;perimeter=ellipsePerimeter;fillColor=#6d8764;strokeColor=#3A5431;fontColor=#ffffff;" vertex="1" parent="1">
          <mxGeometry x="403" y="601" width="20" height="20" as="geometry" />
        </mxCell>
        <mxCell id="p2AEGx6l2dzTs35SkICE-93" value="" style="shape=ellipse;html=1;dashed=0;whitespace=wrap;aspect=fixed;perimeter=ellipsePerimeter;fillColor=#6d8764;strokeColor=#3A5431;fontColor=#ffffff;" vertex="1" parent="1">
          <mxGeometry x="439" y="601" width="20" height="20" as="geometry" />
        </mxCell>
        <mxCell id="p2AEGx6l2dzTs35SkICE-94" value="" style="shape=ellipse;html=1;dashed=0;whitespace=wrap;aspect=fixed;perimeter=ellipsePerimeter;fillColor=#6d8764;strokeColor=#3A5431;fontColor=#ffffff;" vertex="1" parent="1">
          <mxGeometry x="421" y="579" width="20" height="20" as="geometry" />
        </mxCell>
        <mxCell id="p2AEGx6l2dzTs35SkICE-95" value="" style="endArrow=classic;html=1;rounded=0;exitX=1;exitY=0;exitDx=0;exitDy=0;entryX=0;entryY=0.5;entryDx=0;entryDy=0;fillColor=#6d8764;strokeColor=#3A5431;" edge="1" parent="1" source="p2AEGx6l2dzTs35SkICE-88" target="p2AEGx6l2dzTs35SkICE-93">
          <mxGeometry width="50" height="50" relative="1" as="geometry">
            <mxPoint x="720" y="618" as="sourcePoint" />
            <mxPoint x="770" y="568" as="targetPoint" />
            <Array as="points" />
          </mxGeometry>
        </mxCell>
        <mxCell id="p2AEGx6l2dzTs35SkICE-96" value="" style="endArrow=classic;html=1;rounded=0;exitX=0;exitY=0;exitDx=0;exitDy=0;entryX=1;entryY=1;entryDx=0;entryDy=0;fillColor=#6d8764;strokeColor=#3A5431;" edge="1" parent="1" source="p2AEGx6l2dzTs35SkICE-89" target="p2AEGx6l2dzTs35SkICE-92">
          <mxGeometry width="50" height="50" relative="1" as="geometry">
            <mxPoint x="720" y="578" as="sourcePoint" />
            <mxPoint x="770" y="528" as="targetPoint" />
          </mxGeometry>
        </mxCell>
        <mxCell id="p2AEGx6l2dzTs35SkICE-97" value="" style="endArrow=classic;html=1;rounded=0;exitX=0.5;exitY=0;exitDx=0;exitDy=0;entryX=1;entryY=1;entryDx=0;entryDy=0;fillColor=#6d8764;strokeColor=#3A5431;" edge="1" parent="1" source="p2AEGx6l2dzTs35SkICE-90" target="p2AEGx6l2dzTs35SkICE-93">
          <mxGeometry width="50" height="50" relative="1" as="geometry">
            <mxPoint x="720" y="578" as="sourcePoint" />
            <mxPoint x="770" y="528" as="targetPoint" />
          </mxGeometry>
        </mxCell>
        <mxCell id="p2AEGx6l2dzTs35SkICE-98" value="" style="endArrow=classic;html=1;rounded=0;exitX=0.5;exitY=0;exitDx=0;exitDy=0;entryX=0;entryY=0.5;entryDx=0;entryDy=0;fillColor=#6d8764;strokeColor=#3A5431;" edge="1" parent="1" source="p2AEGx6l2dzTs35SkICE-92" target="p2AEGx6l2dzTs35SkICE-94">
          <mxGeometry width="50" height="50" relative="1" as="geometry">
            <mxPoint x="720" y="578" as="sourcePoint" />
            <mxPoint x="770" y="528" as="targetPoint" />
          </mxGeometry>
        </mxCell>
        <mxCell id="p2AEGx6l2dzTs35SkICE-99" value="" style="endArrow=classic;html=1;rounded=0;exitX=0.5;exitY=0;exitDx=0;exitDy=0;entryX=1;entryY=0.5;entryDx=0;entryDy=0;fillColor=#6d8764;strokeColor=#3A5431;" edge="1" parent="1" source="p2AEGx6l2dzTs35SkICE-93" target="p2AEGx6l2dzTs35SkICE-94">
          <mxGeometry width="50" height="50" relative="1" as="geometry">
            <mxPoint x="720" y="578" as="sourcePoint" />
            <mxPoint x="770" y="528" as="targetPoint" />
          </mxGeometry>
        </mxCell>
        <mxCell id="p2AEGx6l2dzTs35SkICE-100" value="" style="shape=image;html=1;verticalAlign=top;verticalLabelPosition=bottom;labelBackgroundColor=#ffffff;imageAspect=0;aspect=fixed;image=https://cdn4.iconfinder.com/data/icons/ionicons/512/icon-plus-128.png" vertex="1" parent="1">
          <mxGeometry x="141" y="490" width="34" height="34" as="geometry" />
        </mxCell>
        <mxCell id="p2AEGx6l2dzTs35SkICE-101" value="" style="shape=image;html=1;verticalAlign=top;verticalLabelPosition=bottom;labelBackgroundColor=#ffffff;imageAspect=0;aspect=fixed;image=https://cdn4.iconfinder.com/data/icons/ionicons/512/icon-plus-128.png" vertex="1" parent="1">
          <mxGeometry x="251" y="490" width="34" height="34" as="geometry" />
        </mxCell>
        <mxCell id="p2AEGx6l2dzTs35SkICE-102" value="" style="endArrow=classic;html=1;rounded=0;exitX=0.5;exitY=0;exitDx=0;exitDy=0;entryX=0.25;entryY=1;entryDx=0;entryDy=0;" edge="1" parent="1" source="p2AEGx6l2dzTs35SkICE-8" target="p2AEGx6l2dzTs35SkICE-48">
          <mxGeometry width="50" height="50" relative="1" as="geometry">
            <mxPoint x="390" y="566" as="sourcePoint" />
            <mxPoint x="440" y="516" as="targetPoint" />
          </mxGeometry>
        </mxCell>
        <mxCell id="p2AEGx6l2dzTs35SkICE-103" value="" style="endArrow=classic;html=1;rounded=0;exitX=0.44;exitY=0.01;exitDx=0;exitDy=0;exitPerimeter=0;entryX=0.5;entryY=1;entryDx=0;entryDy=0;" edge="1" parent="1" source="p2AEGx6l2dzTs35SkICE-7" target="p2AEGx6l2dzTs35SkICE-48">
          <mxGeometry width="50" height="50" relative="1" as="geometry">
            <mxPoint x="390" y="566" as="sourcePoint" />
            <mxPoint x="440" y="516" as="targetPoint" />
          </mxGeometry>
        </mxCell>
        <mxCell id="p2AEGx6l2dzTs35SkICE-104" value="" style="endArrow=classic;html=1;rounded=0;exitX=0.5;exitY=0;exitDx=0;exitDy=0;entryX=0.75;entryY=1;entryDx=0;entryDy=0;" edge="1" parent="1" source="p2AEGx6l2dzTs35SkICE-6" target="p2AEGx6l2dzTs35SkICE-48">
          <mxGeometry width="50" height="50" relative="1" as="geometry">
            <mxPoint x="390" y="566" as="sourcePoint" />
            <mxPoint x="440" y="516" as="targetPoint" />
          </mxGeometry>
        </mxCell>
        <mxCell id="p2AEGx6l2dzTs35SkICE-105" value="" style="endArrow=classic;html=1;rounded=0;exitX=1;exitY=0.5;exitDx=0;exitDy=0;entryX=0.5;entryY=0;entryDx=0;entryDy=0;" edge="1" parent="1" source="p2AEGx6l2dzTs35SkICE-48" target="p2AEGx6l2dzTs35SkICE-5">
          <mxGeometry width="50" height="50" relative="1" as="geometry">
            <mxPoint x="390" y="626" as="sourcePoint" />
            <mxPoint x="440" y="576" as="targetPoint" />
          </mxGeometry>
        </mxCell>
        <mxCell id="p2AEGx6l2dzTs35SkICE-106" value="&lt;b&gt;1&lt;/b&gt;" style="text;html=1;strokeColor=none;fillColor=none;align=center;verticalAlign=middle;whiteSpace=wrap;rounded=0;" vertex="1" parent="1">
          <mxGeometry x="39.25" y="660" width="60" height="30" as="geometry" />
        </mxCell>
        <mxCell id="p2AEGx6l2dzTs35SkICE-107" value="&lt;b&gt;1&lt;/b&gt;" style="text;html=1;strokeColor=none;fillColor=none;align=center;verticalAlign=middle;whiteSpace=wrap;rounded=0;" vertex="1" parent="1">
          <mxGeometry x="141.25" y="661" width="60" height="30" as="geometry" />
        </mxCell>
        <mxCell id="p2AEGx6l2dzTs35SkICE-108" value="&lt;b&gt;1&lt;/b&gt;" style="text;html=1;strokeColor=none;fillColor=none;align=center;verticalAlign=middle;whiteSpace=wrap;rounded=0;" vertex="1" parent="1">
          <mxGeometry x="251.25" y="662" width="60" height="30" as="geometry" />
        </mxCell>
        <mxCell id="p2AEGx6l2dzTs35SkICE-109" value="&lt;b&gt;2&lt;/b&gt;" style="text;html=1;strokeColor=none;fillColor=none;align=center;verticalAlign=middle;whiteSpace=wrap;rounded=0;" vertex="1" parent="1">
          <mxGeometry x="75.25" y="602.5" width="60" height="30" as="geometry" />
        </mxCell>
        <mxCell id="p2AEGx6l2dzTs35SkICE-110" value="&lt;b&gt;2&lt;/b&gt;" style="text;html=1;strokeColor=none;fillColor=none;align=center;verticalAlign=middle;whiteSpace=wrap;rounded=0;" vertex="1" parent="1">
          <mxGeometry x="167.25" y="602.5" width="60" height="30" as="geometry" />
        </mxCell>
        <mxCell id="p2AEGx6l2dzTs35SkICE-111" value="&lt;b&gt;2&lt;/b&gt;" style="text;html=1;strokeColor=none;fillColor=none;align=center;verticalAlign=middle;whiteSpace=wrap;rounded=0;" vertex="1" parent="1">
          <mxGeometry x="260" y="602.5" width="60" height="30" as="geometry" />
        </mxCell>
        <mxCell id="p2AEGx6l2dzTs35SkICE-112" value="&lt;b&gt;3&lt;/b&gt;" style="text;html=1;strokeColor=none;fillColor=none;align=center;verticalAlign=middle;whiteSpace=wrap;rounded=0;" vertex="1" parent="1">
          <mxGeometry x="331" y="475" width="60" height="30" as="geometry" />
        </mxCell>
        <mxCell id="p2AEGx6l2dzTs35SkICE-113" value="&lt;b&gt;4&lt;/b&gt;" style="text;html=1;strokeColor=none;fillColor=none;align=center;verticalAlign=middle;whiteSpace=wrap;rounded=0;" vertex="1" parent="1">
          <mxGeometry x="391" y="682" width="60" height="30" as="geometry" />
        </mxCell>
        <mxCell id="p2AEGx6l2dzTs35SkICE-149" style="edgeStyle=orthogonalEdgeStyle;rounded=0;orthogonalLoop=1;jettySize=auto;html=1;exitX=1;exitY=0.5;exitDx=0;exitDy=0;fillColor=#dae8fc;strokeColor=#6c8ebf;" edge="1" parent="1">
          <mxGeometry relative="1" as="geometry">
            <mxPoint x="178" y="105" as="targetPoint" />
            <mxPoint x="138" y="105" as="sourcePoint" />
          </mxGeometry>
        </mxCell>
        <mxCell id="p2AEGx6l2dzTs35SkICE-128" value="" style="shape=ellipse;html=1;dashed=0;whitespace=wrap;aspect=fixed;perimeter=ellipsePerimeter;fillColor=#dae8fc;strokeColor=#6c8ebf;" vertex="1" parent="1">
          <mxGeometry x="117" y="95" width="20" height="20" as="geometry" />
        </mxCell>
        <mxCell id="p2AEGx6l2dzTs35SkICE-143" value="" style="shape=ellipse;html=1;dashed=0;whitespace=wrap;aspect=fixed;perimeter=ellipsePerimeter;fillColor=#6d8764;strokeColor=#3A5431;fontColor=#ffffff;" vertex="1" parent="1">
          <mxGeometry x="211.25" y="147" width="20" height="20" as="geometry" />
        </mxCell>
        <mxCell id="p2AEGx6l2dzTs35SkICE-172" style="edgeStyle=orthogonalEdgeStyle;rounded=0;orthogonalLoop=1;jettySize=auto;html=1;entryX=1;entryY=0.5;entryDx=0;entryDy=0;fillColor=#a20025;strokeColor=#6F0000;" edge="1" parent="1" target="p2AEGx6l2dzTs35SkICE-170">
          <mxGeometry relative="1" as="geometry">
            <mxPoint x="360" y="137" as="sourcePoint" />
            <Array as="points">
              <mxPoint x="360" y="217" />
              <mxPoint x="221" y="217" />
            </Array>
          </mxGeometry>
        </mxCell>
        <mxCell id="p2AEGx6l2dzTs35SkICE-144" value="" style="shape=ellipse;html=1;dashed=0;whitespace=wrap;aspect=fixed;perimeter=ellipsePerimeter;fillColor=#dae8fc;strokeColor=#6c8ebf;" vertex="1" parent="1">
          <mxGeometry x="293.25" y="127" width="20" height="20" as="geometry" />
        </mxCell>
        <mxCell id="p2AEGx6l2dzTs35SkICE-150" style="edgeStyle=orthogonalEdgeStyle;rounded=0;orthogonalLoop=1;jettySize=auto;html=1;exitX=1;exitY=0.5;exitDx=0;exitDy=0;fillColor=#dae8fc;strokeColor=#6c8ebf;" edge="1" parent="1" source="p2AEGx6l2dzTs35SkICE-151">
          <mxGeometry relative="1" as="geometry">
            <mxPoint x="178" y="137" as="targetPoint" />
          </mxGeometry>
        </mxCell>
        <mxCell id="p2AEGx6l2dzTs35SkICE-151" value="" style="shape=ellipse;html=1;dashed=0;whitespace=wrap;aspect=fixed;perimeter=ellipsePerimeter;fillColor=#dae8fc;strokeColor=#6c8ebf;" vertex="1" parent="1">
          <mxGeometry x="118" y="127" width="20" height="20" as="geometry" />
        </mxCell>
        <mxCell id="p2AEGx6l2dzTs35SkICE-152" style="edgeStyle=orthogonalEdgeStyle;rounded=0;orthogonalLoop=1;jettySize=auto;html=1;exitX=1;exitY=0.5;exitDx=0;exitDy=0;fillColor=#dae8fc;strokeColor=#6c8ebf;" edge="1" parent="1" source="p2AEGx6l2dzTs35SkICE-153">
          <mxGeometry relative="1" as="geometry">
            <mxPoint x="179" y="168" as="targetPoint" />
          </mxGeometry>
        </mxCell>
        <mxCell id="p2AEGx6l2dzTs35SkICE-153" value="" style="shape=ellipse;html=1;dashed=0;whitespace=wrap;aspect=fixed;perimeter=ellipsePerimeter;fillColor=#dae8fc;strokeColor=#6c8ebf;" vertex="1" parent="1">
          <mxGeometry x="119" y="158" width="20" height="20" as="geometry" />
        </mxCell>
        <mxCell id="p2AEGx6l2dzTs35SkICE-155" value="" style="shape=ellipse;html=1;dashed=0;whitespace=wrap;aspect=fixed;perimeter=ellipsePerimeter;fillColor=#6d8764;strokeColor=#3A5431;fontColor=#ffffff;" vertex="1" parent="1">
          <mxGeometry x="210.25" y="107" width="20" height="20" as="geometry" />
        </mxCell>
        <mxCell id="p2AEGx6l2dzTs35SkICE-167" value="" style="endArrow=classic;html=1;rounded=0;exitX=1;exitY=0.5;exitDx=0;exitDy=0;fillColor=#6d8764;strokeColor=#3A5431;startArrow=none;" edge="1" parent="1" source="p2AEGx6l2dzTs35SkICE-143">
          <mxGeometry width="50" height="50" relative="1" as="geometry">
            <mxPoint x="486" y="314" as="sourcePoint" />
            <mxPoint x="270" y="156" as="targetPoint" />
          </mxGeometry>
        </mxCell>
        <mxCell id="p2AEGx6l2dzTs35SkICE-168" value="" style="endArrow=classic;html=1;rounded=0;exitX=1;exitY=0.5;exitDx=0;exitDy=0;fillColor=#6d8764;strokeColor=#3A5431;" edge="1" parent="1" source="p2AEGx6l2dzTs35SkICE-155">
          <mxGeometry width="50" height="50" relative="1" as="geometry">
            <mxPoint x="241.25" y="167" as="sourcePoint" />
            <mxPoint x="266" y="117" as="targetPoint" />
            <Array as="points">
              <mxPoint x="256" y="117" />
            </Array>
          </mxGeometry>
        </mxCell>
        <mxCell id="p2AEGx6l2dzTs35SkICE-169" style="edgeStyle=orthogonalEdgeStyle;rounded=0;orthogonalLoop=1;jettySize=auto;html=1;exitX=1;exitY=0.5;exitDx=0;exitDy=0;fillColor=#dae8fc;strokeColor=#6c8ebf;" edge="1" parent="1" source="p2AEGx6l2dzTs35SkICE-144">
          <mxGeometry relative="1" as="geometry">
            <mxPoint x="355" y="137" as="targetPoint" />
            <mxPoint x="315" y="137" as="sourcePoint" />
          </mxGeometry>
        </mxCell>
      </root>
    </mxGraphModel>
  </diagram>
</mxfile>
